<?xml version="1.0" standalone="no"?>
<!DOCTYPE svg PUBLIC "-//W3C//DTD SVG 20010904//EN"
 "http://www.w3.org/TR/2001/REC-SVG-20010904/DTD/svg10.dtd">
<svg version="1.0" xmlns="http://www.w3.org/2000/svg"
 width="300.000000pt" height="300.000000pt" viewBox="0 0 300.000000 300.000000"
 preserveAspectRatio="xMidYMid meet">
<metadata>
Created by potrace 1.11, written by Peter Selinger 2001-2013
</metadata>
<g transform="translate(0.000000,300.000000) scale(0.100000,-0.100000)"
fill="#000000" stroke="none">
<path d="M366 2801 c-5 -9 -5 -2573 0 -2592 4 -13 36 -15 257 -15 l252 1 2
510 c1 281 2 518 2 528 1 16 37 17 616 17 l615 0 1 -22 c0 -13 1 -250 2 -528
l2 -505 262 0 262 -1 -2 1306 -2 1305 -260 0 -260 0 -2 -485 c-1 -267 -2 -488
-2 -492 -1 -5 -278 -8 -616 -8 -485 0 -615 3 -616 13 0 6 -1 228 -2 492 l-2
480 -253 1 c-139 1 -254 -2 -256 -5z"/>
</g>
</svg>
